<svg xmlns="http://www.w3.org/2000/svg" aria-hidden="true" style="position: absolute; width: 0; height: 0; overflow: hidden;">
    <defs>
        <symbol id="icon-customers-6" viewBox="0 0 59 32">
            <path
                d="M30.6 15.7c-.3-.4-.4-.8-.4-1.2V13c0-.5.2-.9.4-1.2s.6-.4 1.2-.4c.5 0 .9.2 1 .4.3.3.4.6.4 1v.4h-1v-1a.5.5 0 0 0-.4-.1h-.4l-.1.3v3l.2.1h.6l.2-.3v-.8h1v.4c0 .3-.2.7-.4 1-.2.3-.6.4-1.1.4s-1-.1-1.2-.4zM34.5 15.7c-.2-.3-.4-.6-.4-1.1v-1.8c0-.5.2-.8.4-1s.6-.5 1.2-.5c.5 0 1 .2 1.2.4.2.3.3.6.3 1.1v1.8c0 .5 0 .8-.3 1.1s-.7.4-1.2.4-1-.1-1.2-.4zm1.6-.4c.1-.2.2-.4.1-.5V12l-.3-.1c0-.1-.1 0-.2 0h-.3l-.1.1-.2.5v2.2c0 .2 0 .3.2.5l.1.1h.5l.2-.1zM38.4 11.4h1l.7 3.2.8-3.2h1L42 16h-.7l-.1-3.2-.8 3.2H40l-.8-3.2V16h-.8v-4.6zM43.1 11.4h1.6c1 0 1.4.4 1.4 1.3 0 .8-.5 1.3-1.5 1.3h-.5v2h-1v-4.6zm1.4 2a.8.8 0 0 0 .5-.2l.2-.5v-.4l-.2-.1V12a1 1 0 0 0-.5-.1H44v1.4h.4zM47.5 11.4h1l1 4.6h-.8l-.2-1h-1l-.2 1h-.9l1-4.6zm.9 3-.4-2-.4 2h.8zM50.5 11.4h.6l1.3 2.6v-2.6h.8V16h-.6l-1.3-2.7V16h-.8v-4.6zM55.1 14.3l-1-2.9h.9l.6 1.8.6-1.8h1L56 14.3V16h-1v-1.7zM32 18v.3h-.7v1.9H31v-2h-.8V18H32zM34.6 20.2h-.3V20l-.3-.5h-1.1l-.3.5h-.3l1-2h.3l1 2zm-1.6-.8h.9l-.4-.9v-.2l-.1.1v.1l-.4.9zM36.3 20h.1a1.2 1.2 0 0 0 .3-.1h.2v-.5h-.5V19h.8v.9a1.5 1.5 0 0 1-.7.2h-.8l-.4-.3a1 1 0 0 1-.2-.4l-.1-.4v-.4l.3-.4.4-.2a1.6 1.6 0 0 1 .8 0 1.3 1.3 0 0 1 .6.2v.1H36.7a1 1 0 0 0-.3-.1 1.5 1.5 0 0 0-.6 0l-.3.2-.2.3v.7l.2.2a.8.8 0 0 0 .7.3zM39.4 20h1v.2H39V18h.4v2zM41.5 20.2h-.3V18h.3v2.2zM42.8 18l1.4 1.7V18h.3v2.2h-.2l-1.5-1.7v1.7h-.3V18h.2zM47 18v.3h-1.2v.7h1v.2h-1v.7H47v.3h-1.5V18H47zM12.1 5 27 8.5v12.7L12 17.6V5zm-1-1.1v14.3l16.7 4.1V8L11.2 3.9z"
            />
            <path d="M20.1 29 3.4 25V10.4l16.7 4.1V29z" />
            <path d="M11.4 4.8 26 8.4l-6.2 5.3-14.6-3.6 6.2-5.3zm-.2-1-7.8 6.7 16.7 4.1L27.8 8 11.2 3.9zM21 28.2l6.8-5.9-6.8-1.6v7.5z" />
        </symbol>
        <symbol id="icon-customers-5" viewBox="0 0 59 32">
            <path
                d="m15.3 25.4.2.5v.4l-.3.3c-.3.2-.6.3-1 .3h-1.6v-3.5h1.6c.3 0 .7 0 1 .2l.2.3v.3c0 .2 0 .4-.2.6a1 1 0 0 1-.5.3c.3 0 .5.1.6.3zm-2-.6h1.2l.1-.2c.1 0 0-.2 0-.2a.4.4 0 0 0-.1-.4.7.7 0 0 0-.5 0h-.6v.8zm1.3 1.4V26l.1-.2v-.2l-.1-.1a.8.8 0 0 0-.5-.2h-.8v1h.8l.5-.1zM18.7 26.9l-1-1.4h-.3v1.4h-.8v-3.5h1.5c.4 0 .7 0 1 .3.2.1.4.4.4.7s0 .5-.3.7c-.1.2-.4.3-.7.4l1 1.4h-.8zM17.4 25h.6c.5 0 .7-.2.7-.5v-.2l-.2-.2a.8.8 0 0 0-.5-.2h-.6V25zM23 26.2h-1.6l-.3.7h-.8l1.4-3.5h.9l1.4 3.5h-.8l-.3-.7zm-.3-.6-.5-1.5-.6 1.5h1.1zM28.3 26.9h-.8l-1.7-2.4v2.4H25v-3.5h.8l1.7 2.4v-2.4h.8v3.5zM32.7 26c-.1.3-.4.5-.7.6-.3.2-.7.3-1 .3h-1.4v-3.5h1.3c.4 0 .8 0 1.1.2.3.1.6.3.7.6.2.3.3.6.3 1s-.1.5-.3.8zm-.9 0c.3-.3.4-.6.4-.9s-.1-.6-.4-.8c-.2-.2-.6-.3-1-.3h-.5v2.2h.6c.3 0 .7 0 1-.3zM23.4 3.9s10 3.4 9.9 8.3v8.4s-10-3.4-9.9-8.4V4zM42.2 18.6c1.9-1.2 4-1.9 6.4-2.1v-2.6c-2.7.9-4.9 2.6-6.4 4.7z"
            />
            <path d="M41 19.4c1.6-2.8 4.3-5 7.6-6V5.7s-14.3 4.9-14 11.9v11.9l1.6-.6v-1.2a12 12 0 0 1 4.9-8.4z" />
            <path d="M39.7 23.8c0-.8.2-1.6.5-2.4a11 11 0 0 0-3 7.2l2.7-1.3c-.2-1.2-.3-2.3-.2-3.5zM40.3 23.9c-.1 1 0 2 .1 3 4-2 8.3-5.3 8.2-9.2v-.4c-2.8.3-5.4 1.4-7.5 3.2-.4 1-.7 2.2-.8 3.4z" />
        </symbol>
        <symbol id="icon-customers-4" viewBox="0 0 59 32">
            <path
                d="M13.8 12.3c-1.4 0-2.5 1-2.5 2.2 0 1.3 1 2.2 2.5 2.2 1.3 0 2.4-1 2.4-2.2 0-1.2-1-2.2-2.4-2.2zM32 11.6c0-1.7-.8-3.4-2.1-4.6s-3.2-1.9-5-1.9c-2 0-3.8.7-5.1 2s-2.1 2.8-2.1 4.5V21S32 19.6 32 11.6zM6.3 24c0 1.3.5 2.4 1.4 3.3s2.2 1.3 3.6 1.3c1.3 0 2.5-.5 3.5-1.3s1.4-2 1.4-3.2v-6.6s-10 1-10 6.6zm5 1.3-.8-.2a1.1 1.1 0 0 1-.5-1.2c0-.3.2-.5.3-.6l.7-.4.8.1c.3.1.4.2.5.4a1 1 0 0 1-.1 1.5 1.3 1.3 0 0 1-1 .4zM20.3 23.2v2.4h-.5v-2.4h.5zm1 1v.4h-1v-.4h1zm.1-1v.3h-1.2v-.3h1.2zm2.3 1.1v.6l-.3.4-.3.2a1 1 0 0 1-.4.1 1 1 0 0 1-.4 0 1 1 0 0 1-.4-.3 1 1 0 0 1-.2-.4v-1.1l.2-.4.4-.2h.8l.3.2.3.4v.5zm-.5.1V24l-.1-.3-.2-.1h-.4l-.2.1-.1.3v.8l.1.2.2.2h.4l.2-.2v-.2l.1-.4zm2.2.6v-.2h-.1l-.2-.2H25l-.3-.2-.3-.1-.2-.2v-.6l.2-.2.3-.1a1.3 1.3 0 0 1 .8 0c.2 0 .3.2.3.3l.2.4h-.5v-.2l-.2-.1-.2-.1h-.3v.1l-.1.2v.2c0 .1.2 0 .2 0l.2.2.4.1.3.2.1.2v.5l-.2.2-.3.2h-.7a1 1 0 0 1-.3-.2l-.2-.2-.1-.4h.5v.2l.1.1.2.1h.4l.1-.1v-.2zm1.9-1.8v2.4h-.5v-2.4h.5zm.7 0v.3h-2v-.3h2zm2 2v.4h-1.3v-.4H30zm-1.2-2v2.4h-.5v-2.4h.5zm1 1v.3h-1.1v-.4h1.1zm.2-1v.3h-1.3v-.3H30zm.3 0h1.3c.2 0 .3.2.4.3v.7l-.2.3-.3.1h-.9v-.3h.8l.1-.2v-.4l-.1-.1c-.1-.1-.1 0-.2 0h-.4v2h-.5V23zm1.3 2.4-.5-1.1h.5l.6 1h-.6zm2.7-.9h-.7v-.4H34.5l.1-.2V23.8l-.1-.2h-.7v2h-.5V23h1c.1 0 .3 0 .4.2a.7.7 0 0 1 .5.7l-.1.4c-.1.2-.2.2-.4.2l-.4.1zm2.9.5v.4h-1.3v-.4h1.3zm-1.2-2v2.4h-.5v-2.4h.5zm1 1v.3h-1.1v-.4h1zm.2-1v.3h-1.3v-.3h1.3zm1.4 0v2.4H38v-2.4h.5zm.7 0v.3h-2v-.3h2zm2 2v.4h-1.4v-.4h1.3zm-1.2-2v2.4h-.5v-2.4h.5zm1 1v.3h-1.2v-.4h1.2zm.1-1v.3H40v-.3h1.3zm.3 0H43c.2 0 .3.2.3.3l.1.4v.3l-.2.3-.3.1H42v-.3h.8l.1-.2v-.4l-.1-.1H42v2h-.5V23zm1.4 2.4-.6-1.1h.6l.5 1H43zM45 25v-.2l-.2-.2h-.3a3 3 0 0 1-.3-.2l-.3-.1-.1-.2-.1-.3v-.3l.3-.2.2-.1a1.3 1.3 0 0 1 .9 0l.3.3.1.4H45v-.2l-.2-.1-.2-.1h-.2l-.2.1V24l.1.1c.1.1.1 0 .2 0l.2.2.3.1.3.2.1.2.1.2v.3l-.2.2-.3.2h-.7a1 1 0 0 1-.4-.2l-.2-.2v-.4h.4v.2l.2.1.1.1h.4l.2-.1v-.2z"
            />
        </symbol>
        <symbol id="icon-customers-3" viewBox="0 0 32 32">
            <path
                d="m5 30.3.2.2-.5.3-.6.1h-.6l-.5-.4-.3-.4V29l.4-.4.4-.2a2 2 0 0 1 1.2 0c.2 0 .3 0 .5.2l-.2.1H4.6a1.1 1.1 0 0 0-.3-.1 1.5 1.5 0 0 0-.7 0 1 1 0 0 0-.6.5v.9l.3.3.3.2.4.1h.2a1 1 0 0 0 .6-.2zM9.6 29.6l-.1.5c0 .2-.2.3-.3.4l-.5.3a2 2 0 0 1-1.2 0c-.2 0-.4-.2-.5-.3l-.3-.4v-1c0-.2.2-.4.3-.5l.5-.2a2 2 0 0 1 1.2 0l.5.2a1.2 1.2 0 0 1 .4 1zm-.4 0-.1-.4a.9.9 0 0 0-.6-.6h-.8a1 1 0 0 0-.4.2l-.2.4c-.1.2-.1.5 0 .8l.2.3.4.2c.2.1.6.1.8 0 .2 0 .3 0 .4-.2L9 30v-.4zM12.8 30v.1-.2l1.1-1.6h.5v2.6H14v-2.1l-1 1.6-.2.1h-.1c-.1 0 0 0 0 0l-1.1-1.7V31h-.4v-2.6h.4l1.1 1.6v.1zM16.6 30v.9h-.4v-2.6h1.4l.4.2.2.3v.3a.7.7 0 0 1-.3.6 1 1 0 0 1-.3.2h-1zm0-.4h.8l.2-.1.2-.2V29l-.2-.2a.9.9 0 0 0-.5-.1h-.5v1zM22 30.9h-.3l-.1-.1-.3-.6h-1.4l-.3.6h-.4l1.2-2.5h.4l1.2 2.6zm-2-1h1.2l-.5-1-.1-.3v.2h-.1L20 30zM23.7 28.3h.1l1.8 2v-2h.3v2.6H25.6l-1.8-2v2h-.3v-2.6h.2zM28.9 29.9v1h-.4v-1l-1.1-1.6h.4l.8 1V29.7l.1-.1.1-.1.7-1 .1-.1h.4l-1.1 1.6zM12.6 24h.5c2.7-1 5-2.7 6.6-4.9S22 14.5 22 12l-3-2.5c.6 2.7.3 5.5-.8 8s-3 4.9-5.6 6.5z"
            />
            <path d="M11.5 23.8c2.8-1.6 4.9-4 6-6.6s1.4-5.7.6-8.4L13.8 5c1.8 3 2.5 6.4 2 9.7s-1.9 6.4-4.3 9zM26 15a13 13 0 0 1-5 7.1c-.8.6-1.6 1-2.5 1.5 2-.6 4-1.5 5.6-2.7s2.8-2.8 3.5-4.5L26 15z" />
            <path
                d="m25.2 14.5-2.4-2c0 2.3-.9 4.7-2.3 6.7s-3.6 3.7-6 4.8H16c2.3-.9 4.4-2.1 6-3.8s2.6-3.6 3.1-5.7zM11.8 3.6 9 1.1C6.3 2 4 3.5 2.5 5.5S0 9.8 0 12.2c0 2.6 1 5.2 3 7.3s4.6 3.5 7.6 4.2c2.6-2.8 4.2-6.3 4.5-9.9s-1-7.2-3.3-10.2zM32 14.1c0-3.1-1.5-6.1-4-8.3S21.7 2.3 18 2.3c-1.7 0-3.4.2-5 .8l18 15.3c.6-1.4.9-2.8.9-4.3z"
            />
        </symbol>
        <symbol id="icon-customers-2" viewBox="0 0 32 32">
            <path
                d="M14.2 1.8h.5c.7 0 1.5.2 2.2.4V.4a13 13 0 0 0-3.2-.4h-.2a18.3 18.3 0 0 0-9.3 2.5V20a19.5 19.5 0 0 1 8.4-2.4h.7v-1.8A21.2 21.2 0 0 0 6.6 17l-.7.2V3.6l.3-.1a17.4 17.4 0 0 1 7.3-1.7h.7zm3.1 1.8h1.2a19.4 19.4 0 0 0 9.3-2.3v17.1a18.3 18.3 0 0 1-12.7 2.1V3.3a14.3 14.3 0 0 0 2.2.3zm8.8.1-.7.3-1.7.5a21.1 21.1 0 0 1-6.3.6h-.5v14h.4a14.2 14.2 0 0 0 5.3-.5c1.1-.2 2.2-.6 3.2-1.1l.3-.1V3.7zM5.4 26a1 1 0 0 0-.7-.3 1 1 0 0 0-.4 0 1 1 0 0 0-.5.6l-.1.4v2.8l.3.3.3.2h.8a1 1 0 0 0 .5-.6V28.8h-.5v.4l-.2.1h-.1l-.1.1a.3.3 0 0 1-.3-.1l-.1-.3v-2.6h.2s.1-.1.2 0c0-.1 0 0 .1 0H5V27h.7v-.3a1 1 0 0 0-.3-.7zM9 26a1 1 0 0 0-1.4 0 1 1 0 0 0-.2.3l-.1.4V29.4l.3.3.3.2a1 1 0 0 0 .8 0s.2 0 .3-.2l.2-.3.1-.4V26.3a1 1 0 0 0-.3-.4zm-.3 3a.4.4 0 0 1-.1.3.4.4 0 0 1-.6 0A.4.4 0 0 1 8 29v-2.3a.4.4 0 0 1 .1-.3.4.4 0 0 1 .6 0 .4.4 0 0 1 .1.3V29zM13.8 30v-4.3h-.6l-.8 2.3-.8-2.3H11V30h.6v-2.6l.6 1.8h.3l.6-1.8V30h.7zM17.2 26l-.3-.2h-1.4V30h.6v-1.7h.3l.6-.1.3-.3.2-.4a3 3 0 0 0 0-1l-.3-.5zm-.3 1.3v.2l-.2.2H16v-1.4h.6l.1.2.1.2v.6zM20 25.7h-.4l-1 4.3h.6l.2-1h.8l.2 1h.6l-1-4.3zm-.5 2.8.3-1.6.3 1.6h-.6zM24 28.3l-1-2.6h-.5V30h.6v-2.6L24 30h.6v-4.3H24v2.6zM27.7 25.7l-.5 1.7-.5-1.7H26l.9 2.5V30h.6v-1.8l.8-2.5h-.6zM3.7 31.2H4v.8h.2v-.8h.3V31h-.8v.2zM6.1 31l-.3 1H6v-.2h.4l.1.2h.2l-.4-1h-.2zm0 .6.1-.4.2.4H6zM8.6 31.6h.2v.1l-.2.1h-.2l-.1-.3c0-.2 0-.3.3-.3s.2 0 .2.1H9c0-.2-.2-.3-.4-.3l-.4.1-.1.2c-.1 0 0 .1 0 .2l.1.4a.5.5 0 0 0 .4.1c.1 0 .3 0 .4-.2v-.3h-.4v.1zM11 31h-.2v1h.7v-.2H11V31zM13.1 31H13v1h.2v-1zM15.2 31.7l-.4-.7h-.2v1h.1v-.7l.4.7h.2v-1h-.1v.7zM17 31.5h.5v-.1H17v-.2h.5V31h-.7v1h.8v-.2H17v-.3zM21.5 31.4H21V31h-.2v1h.2v-.4h.4v.4h.2v-1h-.2v.4zM23.3 31.5h.5v-.1h-.5v-.2h.6V31H23v1h.8v-.2h-.6v-.3zM25.9 31.5c.1 0 .2 0 .2-.2a.2.2 0 0 0 0-.2l-.4-.1h-.4v1h.2v-.4h.2l.3.4h.2l-.1-.2-.2-.3zm-.2 0h-.2v-.3h.4v.1l-.2.1zM27.8 31.5h.5v-.1h-.5v-.2h.5V31h-.7v1h.7v-.2h-.5v-.3z"
            />
        </symbol>
        <symbol id="icon-customers-1" viewBox="0 0 32 32">
            <path
                d="M6.1 0 11 4.5H2v22h23.2v-8.3l4.8 4.5V0H6zM25 17.6 11.5 4.7H25v13zm-4.2 5.8h-15V8.5h1v13.9h14v1zm-12 7.3.5-1.2h.4L9 31.1v.8h-.4v-.8l-.8-1.6H8l.6 1.2zm2-1.2 1 2.4h-.4l-.2-.5h-1l-.2.5h-.4l.9-2.4h.3zm-.5 1.5h.7l-.3-1-.4 1zm3-.4c-.2-.1-.2-.2-.2-.3v-.5l.2-.2.3-.1h.4l.2.3v.4l-.1.2-.2.2h-.2l.5.6a1 1 0 0 0 .1-.4h.4v.3a1 1 0 0 1-.2.4l.3.4h-.4l-.2-.1-.2.1a1.1 1.1 0 0 1-.8 0 .7.7 0 0 1-.3-.3V31l.1-.2c.1 0 .2 0 .3-.2zm.2.3-.2.2a.4.4 0 0 0 0 .4v.1h.3a.6.6 0 0 0 .4 0l-.5-.7zm0-.5h.2l.2-.2V30h-.3a.2.2 0 0 0-.2 0V30.3a1 1 0 0 0 .2.2zm4.3.8-.1.4-.4.3a1 1 0 0 1-.5 0 .9.9 0 0 1-.7-.3 1 1 0 0 1-.2-.3v-1.1l.2-.4.4-.2.4-.1.5.1.3.3.1.4h-.4v-.2l-.3-.2h-.5l-.2.1v.3l-.1.3V31.2l.1.2.2.2h.5l.2-.2v-.2h.5zm2.3-.4v-.6a1 1 0 0 0-.3-.4l-.3-.2a1 1 0 0 0-.4-.1 1 1 0 0 0-.4 0l-.3.3-.2.4-.1.5v.6l.3.4.3.2h.8l.3-.2.2-.4.1-.5zm-.4-.1v.5l-.2.2a.5.5 0 0 1-.4.2h-.2l-.2-.2-.1-.2V30a.5.5 0 0 1 .5-.2h.2l.2.2.1.3v.4z"
            />
        </symbol>
        <symbol id="icon-linkedin" viewBox="0 0 32 32">
            <path
                d="M32 32V20.3c0-5.8-1.2-10.2-8-10.2a7 7 0 0 0-6.2 3.4h-.1v-2.9h-6.4V32H18V21.4c0-2.8.6-5.5 4-5.5s3.5 3.2 3.5 5.7V32H32zM.5 10.6h6.7V32H.5V10.6zM3.8 0C1.8 0 0 1.7 0 3.8s1.7 4 3.8 4c2.2 0 3.9-1.8 3.9-4C7.7 1.8 6 0 3.8 0z"
            />
        </symbol>
        <symbol id="icon-facebook" viewBox="0 0 32 32"><path d="M21.3 5.3h3v-5C23.6.1 22 0 20 0c-4.2 0-7.1 2.6-7.1 7.5V12H8.2v5.7H13V32h5.7V17.7h4.5l.7-5.7h-5.2V8c0-1.6.4-2.7 2.7-2.7z" /></symbol>
        <symbol id="icon-twitter" viewBox="0 0 32 32">
            <path
                d="M32 6c-1.2.6-2.5 1-3.8 1.1 1.4-.8 2.4-2 3-3.6-1.4.7-2.8 1.3-4.3 1.6a6.6 6.6 0 0 0-11.2 6A18.6 18.6 0 0 1 2.2 4.2a6.6 6.6 0 0 0 2 8.8c-1 0-2-.4-3-.8 0 3.2 2.4 5.9 5.3 6.5a6.5 6.5 0 0 1-3 0 6.6 6.6 0 0 0 6.2 4.6A13.2 13.2 0 0 1 0 26.1 18.5 18.5 0 0 0 28.7 9.5c1.3-1 2.4-2 3.3-3.4z"
            />
        </symbol>
        <symbol id="icon-instagram" viewBox="0 0 32 32">
            <path
                d="M32 9.4c-.1-1.7-.4-2.9-.8-3.9s-1-2-1.8-2.8A7.9 7.9 0 0 0 26.5.8c-1-.4-2.1-.6-3.8-.7A109.5 109.5 0 0 0 5.6.8c-1 .4-2 1-2.9 1.9C2 3.5 1.3 4.5 1 5.5.5 6.5.2 7.7.2 9.4a109.5 109.5 0 0 0 .7 17c.4 1.2 1 2.1 1.8 3 .8.7 1.8 1.4 2.9 1.8 1 .4 2.2.6 3.9.7a117.2 117.2 0 0 0 17-.7 8.2 8.2 0 0 0 4.7-4.7c.4-1 .7-2.2.8-3.9V9.4zm-3 13c0 1.6-.2 2.5-.5 3a5.3 5.3 0 0 1-3 3c-.6.3-1.4.6-3 .6a112.7 112.7 0 0 1-15.9-.5 5 5 0 0 1-1.8-1.2 5 5 0 0 1-1.2-1.9c-.2-.5-.5-1.4-.5-3a112.7 112.7 0 0 1 .5-15.8c.3-.7.7-1.3 1.2-1.9a5 5 0 0 1 1.8-1.1c.6-.3 1.5-.5 3-.6a112.7 112.7 0 0 1 15.9.6 5 5 0 0 1 1.8 1.1 5 5 0 0 1 1.2 1.9c.3.5.5 1.4.6 3a112.7 112.7 0 0 1 0 12.9z"
            />
            <path d="M16 7.8a8.2 8.2 0 1 0 0 16.4 8.2 8.2 0 0 0 0-16.4zm0 13.5a5.3 5.3 0 1 1 0-10.6 5.3 5.3 0 0 1 0 10.6zM26.5 7.5a2 2 0 1 1-3.8 0 2 2 0 0 1 3.8 0z" />
        </symbol>
        <symbol id="icon-astronaut" viewBox="0 0 32 32">
            <path
                fill="#4D5AE5"
                d="M32 4.5c0-.2-.3-.3-.5-.3l-1.9-.3-.8-1.7c-.2-.4-.8-.4-1 0L27 3.9l-2 .3a.5.5 0 0 0-.2.9L26 6.4l-.3 2c0 .1 0 .3.2.4.2.2.4.2.6 0l1.7-.8 1.7.9a.5.5 0 0 0 .8-.6l-.3-1.9 1.3-1.3c.2-.2.2-.4.2-.6zM29.5 6c-.1 0-.2.2-.1.4l.1 1.1-1-.5a.5.5 0 0 0-.4 0l-1 .5.1-1-.1-.5-.8-.8 1.1-.2c.2 0 .3-.1.4-.3l.5-1 .5 1c0 .2.2.3.4.3l1.1.2-.8.8zM26.1 20.5h-1v1h1v-1zM26.1 22.7h-1v1h1v-1zM27.2 21.6h-1v1h1v-1zM25 21.6h-1v1h1v-1zM22.4 26.4h-1v1h1v-1zM22.4 28.5h-1v1h1v-1zM23.5 27.5h-1.1v1h1v-1zM21.3 27.5h-1v1h1v-1zM16 24.3h-1v1h1v-1zM16 26.4h-1v1h1v-1zM17 25.3h-1v1h1v-1zM15 25.3h-1.1v1h1v-1zM5.9 6.1H4.8v1h1v-1zM5.9 8.3H4.8v1h1v-1zM7 7.2H5.8v1h1v-1zM4.8 7.2h-1v1h1v-1z"
            />
            <path
                d="M24.7 14.2c-.3-.4-.7-.7-1.2-.7-.5-.1-1 0-1.3.3l-1.3 1-1.9 1.4-1.3-.6a7 7 0 0 0-2.9-13.2A7 7 0 0 0 9 13H6l-3.2 1.6-2 1a1.8 1.8 0 0 0 1 3.2c.3 0 .6 0 .8-.2L4 18l2.3-1.2h1.3l-5.4 5.4-1.3 1.3a1.7 1.7 0 0 0 0 2.4 1.7 1.7 0 0 0 2.3 0l1.3-1.3 1.8-1.3.9.9-1.8 1.7-1.3 1.4a1.7 1.7 0 0 0 0 2.3 1.7 1.7 0 0 0 2.3 0l3.5-3.4 1-1 5.2-5.7 3.5.5h.2l.1-.1 3.3-2.1 1.3-1.3c.7-.6.8-1.6.2-2.3zM2.1 17.8h-.5a.7.7 0 0 1-.2-1.2l1.3-.7.4 1.3-1 .6zm3.5-1.9-1.5.8-.5-1.2 2-1v1.4zm15.1-6.6c0 1-.2 1.8-.6 2.6l-4.2-2c0-.5-.3-1-.7-1.3l1.4-4.9c2.4.8 4.1 3 4.1 5.6zM9 9.3a5.9 5.9 0 0 1 6.7-5.8L14 8.3a1.9 1.9 0 1 0 0 3.7c.7 0 1.3-.4 1.6-1l3.9 1.8A5.9 5.9 0 0 1 8.9 9.3zm6 .8a.8.8 0 0 1-1.6 0 .8.8 0 0 1 1.6 0zm-12.4 15c-.3.3-.7.3-.9 0a.6.6 0 0 1 0-.8l1-1 .8.9-1 1zM5.7 29c-.3.2-.6.2-.9 0a.6.6 0 0 1 0-.9l1-1 .8 1-1 .9zm3.5-3.5-1.8 1.8-.9-.9 1.8-1.7.1-.2v-.5h-.1l-1.6-1.7h-.1l-.1-.1H6l-1.8 1.4-.9-1 2.4-2.3 4.4 4.3-1 1zm6.8-7a.6.6 0 0 0-.4 0v.1l-4.8 5.2-4.3-4.2 2.8-2.9a.5.5 0 0 0-.4-.9H6.7v-1.6H10a7 7 0 0 0 6.2 2l.1.1 2.5 1 .1.7.2 1-3-.5zm4 .2-.3-1.6 1.5-1 .9 1.2-2 1.4zm3.8-2.9-.9.8-.9-1.2.8-.6c.2-.2.4-.2.6-.2a.7.7 0 0 1 .4 1.2z"
            />
            <path
                d="m13.6 18.5-2.1-2a.5.5 0 0 0-.8 0l-2.1 2a.5.5 0 0 0 0 .8l2.1 2.1a.5.5 0 0 0 .8 0l2.1-2.1a.5.5 0 0 0 0-.8zm-2.5 1.8-1.4-1.4 1.4-1.4 1.4 1.4-1.4 1.4zM17.2 5l-.3 1.1s1.7.5 1.7 2.2h1.1c0-2-1.7-3-2.5-3.2zM19.7 9.3h-1v1h1v-1z"
            />
        </symbol>
        <symbol id="icon-diagram" viewBox="0 0 32 32">
            <path fill="#4D5AE5" d="M15 15h1v4.8h-1V15zM19.2 17.1h1v2.7h-1V17zM10.7 18.7h1v1h-1v-1zM7.5 18.2h1v1.6h-1v-1.6z" />
            <path
                d="M1.6 28.3h25.6c.9 0 1.6-.7 1.6-1.6v-2.1c0-1-.7-1.6-1.6-1.6h-.5V9.7l3-2.9a1.6 1.6 0 1 0-.8-.8l-2.2 2.2V7c0-1-.8-1.6-1.6-1.6H3.7c-.9 0-1.6.7-1.6 1.6v16h-.5c-.9 0-1.6.7-1.6 1.6v2c0 1 .7 1.7 1.6 1.7zM30.4 4.8a.5.5 0 1 1 0 1.1.5.5 0 0 1 0-1zM3.2 7c0-.3.2-.6.5-.6h21.4c.2 0 .5.3.5.6v2.2l-1 1V8c0-.3-.3-.5-.6-.5H4.8c-.3 0-.5.2-.5.5v13.4c0 .3.2.5.5.5H24c.3 0 .5-.2.5-.5v-9.7l1-1V23H3.3V7zM8 13.9a1.6 1.6 0 1 0 1.1 2.7l1.9 1 .6-.1 4-4.5 3.8 3 .7-.1 3.4-3.2v8.1H5.3V8.6h18.2v2.6l-3.8 3.6-4-3a.5.5 0 0 0-.6.1l-4 4.5-1.5-.7v-.2c0-.9-.7-1.6-1.6-1.6zm.5 1.6a.5.5 0 1 1-1 0 .5.5 0 0 1 1 0zm3.2 8.5h5.4v.6c0 .3-.3.5-.6.5h-4.2a.5.5 0 0 1-.6-.5V24zm-10.6.6c0-.3.2-.6.5-.6h9v.6c0 .8.8 1.6 1.7 1.6h4.2c1 0 1.6-.8 1.6-1.6V24h9c.4 0 .6.3.6.6v2c0 .4-.2.6-.5.6H1.6a.5.5 0 0 1-.5-.5v-2.1z"
            />
        </symbol>
        <symbol id="icon-clock" viewBox="0 0 32 32">
            <path
                d="M31.3 15.3a15.3 15.3 0 1 0-19.8 14.6h.4l.2-.4 4-12.3a2 2 0 1 0-1-3.6l-5-5.1a.6.6 0 0 0-1 .9l5.2 5c-.4.9-.2 1.8.5 2.4l-3.7 11.7a14 14 0 1 1 10.6-.4l-.4-1.9a.6.6 0 0 0-1-.3l-3.9 3.4a.6.6 0 0 0 .2 1.1l5 1.6a.6.6 0 0 0 .8-.8l-.4-1.8c5.6-2.4 9.3-8 9.3-14.1zM16 14.7a.6.6 0 1 1 0 1.2.6.6 0 0 1 0-1.2zm2 14.8 2.3-2 .6 3-2.8-1z"
            />
            <path fill="#4D5AE5" d="M15.4 3.2v1.3a.6.6 0 1 0 1.2 0V3.2a.6.6 0 0 0-1.2 0zM3.9 14.7a.6.6 0 0 0 0 1.2h1.3a.6.6 0 1 0 0-1.2H3.9zM28.1 16a.6.6 0 1 0 0-1.3h-1.3a.6.6 0 0 0 0 1.2h1.3z" />
        </symbol>
        <symbol id="icon-antenna" viewBox="0 0 30 32">
            <path
                d="m29.8 22.1-8.5-8.5 1-4.6.7.1a2.2 2.2 0 1 0-2-1.4l-5 .6L8 .2a.5.5 0 0 0-.4-.2c-.1 0-.3 0-.4.2L5.7 1.7c-.2.2-.2.5 0 .7l.8.8A15 15 0 0 0 9.2 21v6.7H2.6a2.7 2.7 0 0 0-2.6 2.7v1c0 .4.2.6.5.6h24.5c.3 0 .6-.2.6-.5v-1.1c0-1.5-1.2-2.7-2.7-2.7h-6.4V25a15 15 0 0 0 10-1.5l1 .9.3.1.4-.1 1.5-1.5c.2-.3.2-.6 0-.8zM22.3 6.2a1 1 0 1 1 .7 1.9 1 1 0 0 1-.7-1.9zM21 9.7l-.6 3-1.1-1.2L21 9.7zm-.6-.9-1.9 2L17 9.2l3.4-.5zm2.6 20c.9 0 1.6.7 1.6 1.6v.5H1.1v-.5c0-.9.8-1.6 1.6-1.6H23zm-7.5-2.1v1h-5.3v-1h5.3zm-5.3-1.1v-4c0-1.3 1.2-2.4 2.7-2.4s2.6 1 2.6 2.3v4.1h-5.3zm6.4-1.7v-2.4c0-1.8-1.7-3.4-3.7-3.4-1.4 0-2.6.7-3.3 1.8-4-4.3-5-10.6-2.3-15.9L26 22.7a13.8 13.8 0 0 1-9.3 1.2zm11.3-.7L6.9 2l.7-.7 8 8 13 13.2-.7.7z"
            />
            <path fill="#4D5AE5" d="M12.9 20.3a1.6 1.6 0 1 0 0 3.2 1.6 1.6 0 1 0 0-3.2zm.3 2-.3.1a.5.5 0 0 1 0-1 .5.5 0 0 1 .3.8z" />
        </symbol>
        <symbol id="icon-close-blackdrop" viewBox="0 0 32 32">
  			<path d="M32 3.223l-3.223-3.223-12.777 12.777-12.777-12.777-3.223 3.223 12.777 12.777-12.777 12.777 3.223 3.223 12.777-12.777 12.777 12.777 3.223-3.223-12.777-12.777 12.777-12.777z"></path>
        </symbol>
        <symbol id="icon-send" viewBox="0 0 38 32">
            <path d="M38.4 0l-38.4 18 12.272 3.788 18.928-14.788-14.397 16.186 0.012 0.004-0.014-0.004v8.814l6.882-6.691 8.718 2.691 6-28z"></path>
        </symbol>
        <symbol id="icon-modal-name" viewBox="0 0 32 32">
            <path d="M16 16c2.947 0 5.333-2.387 5.333-5.333s-2.387-5.333-5.333-5.333c-2.947 0-5.333 2.387-5.333 5.333s2.387 5.333 5.333 5.333zM16 18.667c-3.56 0-10.667 1.787-10.667 5.333v1.333c0 0.733 0.6 1.333 1.333 1.333h18.667c0.733 0 1.333-0.6 1.333-1.333v-1.333c0-3.547-7.107-5.333-10.667-5.333z"></path>
        </symbol>
        <symbol id="icon-modal-phone" viewBox="0 0 24 32">
            <path d="M19.635 18.487l-2.451-0.28c-0.589-0.067-1.167 0.135-1.582 0.55l-1.775 1.775c-2.731-1.389-4.969-3.618-6.359-6.359l1.785-1.785c0.415-0.415 0.618-0.994 0.55-1.582l-0.28-2.432c-0.116-0.975-0.936-1.708-1.92-1.708h-1.669c-1.090 0-1.997 0.907-1.93 1.997 0.511 8.24 7.102 14.821 15.332 15.332 1.090 0.068 1.997-0.839 1.997-1.93v-1.669c0.010-0.975-0.724-1.795-1.698-1.911z"></path>
        </symbol>
        <symbol id="icon-modal-email" viewBox="0 0 24 32">
            <path d="M20 8h-16c-1.1 0-1.99 0.9-1.99 2l-0.010 12c0 1.1 0.9 2 2 2h16c1.1 0 2-0.9 2-2v-12c0-1.1-0.9-2-2-2zM19.6 12.25l-7.070 4.42c-0.32 0.2-0.74 0.2-1.060 0l-7.070-4.42c-0.25-0.16-0.4-0.43-0.4-0.72 0-0.67 0.73-1.070 1.3-0.72l6.7 4.19 6.7-4.19c0.57-0.35 1.3 0.050 1.3 0.72 0 0.29-0.15 0.56-0.4 0.72z"></path>
        </symbol>
        <symbol id="menu-hamburger" viewBox="0 0 32 32">
            <path d="M6.4 11.733v-2.133h19.2v2.133h-19.2zM6.4 17.067h19.2v-2.133h-19.2v2.133zM6.4 22.4h19.2v-2.133h-19.2v2.133z"></path>
        </symbol>
    </defs>
</svg>